<svg version="1" xmlns="http://www.w3.org/2000/svg" 
viewBox="0 0 474.000000 474.000000">
    <path d="M2280 4718 c-23 -16 -58 -66 -109 -156 -51 -89 -83 -134 -96 -136 -11 -2 -69 -14 -130 -26 -533 -105 -1030 -454 -1327 -932 -118 -190 -216 -439 -261 -663 l-24 -119 -133 -77 c-175 -102 -193 -120 -198 -201 -4 -77 17 -116 81 -154 23 -14 89 -53 146 -87 l104 -62 24 -117 c123 -619 538 -1154 1114 -1435 66 -32 119 -64 119 -70 0 -7 7 -13 15 -13 8 0 59 -18 114 -40 54 -22 109 -40 121 -40 29 0 110 -38 110 -52 0 -7 20 -9 64 -5 l65 6 84 -147 c94 -164 123 -192 205 -192 87 0 113 26 227 228 54 96 87 143 100 146 11 3 65 14 120 26 524 115 1002 455 1289 919 139 224 201 388 282 745 9 36 16 42 158 125 81 48 157 99 168 115 22 30 34 100 24 140 -12 47 -55 83 -200 166 -138 80 -146 86 -152 119 -14 88 -69 294 -101 381 -163 438 -478 812 -887 1054 -61 36 -146 81 -188 98 -43 18 -78 37 -78 42 0 17 -36 35 -71 36 -19 0 -39 4 -45 9 -5 5 -67 24 -139 43 -78 19 -137 40 -148 51 -15 15 -28 18 -57 13 l-38 -6 -53 93 c-81 141 -98 164 -134 181 -49 24 -125 21 -165 -6z m342 -536 c9 -9 8 -12 -5 -12 -9 0 -17 -4 -17 -10 0 -5 26 -8 58 -7 31 0 98 -9 147 -20 50 -12 108 -24 130 -27 83 -10 290 -110 446 -215 375 -252 636 -626 747 -1067 41 -165 56 -313 49 -502 -6 -167 -21 -267 -61 -416 -168 -612 -667 -1105 -1281 -1266 -179 -47 -246 -55 -455 -55 -215 0 -310 9 -310 30 0 7 -15 15 -32 18 -61 9 -153 29 -173 37 -11 5 -56 16 -100 26 -163 35 -416 179 -598 341 -294 260 -499 621 -579 1015 -20 99 -23 142 -23 348 1 267 12 343 86 565 214 645 776 1117 1453 1220 117 18 499 16 518 -3z"
    transform="matrix(.1 0 0 -.1 0 474)" />
    <path d="M2295 3693 c-168 -22 -247 -38 -313 -62 -149 -56 -223 -91 -293 -136 -38 -25 -72 -45 -76 -45 -12 0 -119 -96 -209 -187 -157 -157 -270 -363 -330 -600 -21 -83 -24 -118 -24 -270 0 -222 12 -282 98 -503 5 -14 11 -29 12 -35 7 -31 109 -192 165 -261 113 -137 250 -253 407 -342 102 -59 208 -100 368 -143 100 -27 115 -28 328 -29 190 0 237 3 320 21 162 35 364 104 484 165 114 59 231 132 226 143 -2 3 -12 24 -22 46 -10 22 -33 69 -52 105 -18 36 -42 83 -53 105 -78 159 -134 271 -137 274 -2 2 -28 -12 -59 -32 -30 -21 -58 -37 -62 -37 -5 0 -34 -18 -67 -39 -62 -42 -79 -50 -225 -106 -257 -101 -520 -101 -709 0 -37 19 -71 35 -77 35 -18 0 -153 125 -189 176 -52 72 -70 108 -106 214 -55 166 -52 381 10 525 11 25 17 45 14 45 -3 0 9 26 27 58 102 181 232 291 418 354 90 31 104 33 226 32 130 -1 137 -2 265 -49 46 -17 140 -81 140 -95 0 -5 -9 -12 -21 -15 -11 -4 -62 -34 -112 -66 -50 -32 -95 -59 -100 -59 -4 0 -41 -23 -82 -50 -42 -28 -83 -54 -93 -57 -9 -4 -53 -30 -97 -58 -44 -28 -88 -54 -97 -58 -10 -3 -51 -29 -93 -57 -41 -27 -77 -50 -81 -50 -12 0 -184 -112 -184 -120 0 -14 221 -445 230 -448 5 -2 45 21 89 50 92 61 201 130 275 173 50 30 84 50 276 173 55 34 102 62 105 62 3 0 39 23 80 50 42 28 83 54 93 57 9 4 52 31 95 60 43 29 82 53 87 53 4 0 44 25 88 55 44 30 83 55 87 55 4 0 44 24 88 54 45 29 101 64 125 76 23 13 42 28 42 34 0 5 -18 40 -40 77 -22 37 -40 70 -40 73 0 9 -102 140 -149 191 -25 27 -72 73 -104 102 -65 58 -246 183 -265 183 -7 0 -36 12 -64 26 -100 51 -184 76 -313 95 -119 17 -254 22 -330 12z"
    transform="matrix(.1 0 0 -.1 0 474)" />
    <path d="M3252 1994 c2 -5 12 -27 22 -49 41 -93 239 -485 245 -485 6 0 69 95 174 262 32 51 78 125 103 163 24 39 44 75 44 81 0 7 -64 13 -192 17 -106 4 -240 10 -297 14 -61 3 -102 2 -99 -3z"
    transform="matrix(.1 0 0 -.1 0 474)" />
</svg>